<?xml version="1.0" encoding="utf-8"?>
<!-- Generator: Adobe Illustrator 24.3.0, SVG Export Plug-In . SVG Version: 6.00 Build 0)  -->
<svg version="1.1" id="Capa_1" xmlns="http://www.w3.org/2000/svg" xmlns:xlink="http://www.w3.org/1999/xlink" x="0px" y="0px"
	 viewBox="0 0 394.8 394.8" style="enable-background:new 0 0 394.8 394.8;" xml:space="preserve">
<style type="text/css">
	.st0{fill:#FFFFFF;}
	.st1{enable-background:new    ;}
</style>
<g>
	<path class="st0" d="M346.7,78.8l-0.4-0.4V78l-76-76l-0.4-0.4c0,0-0.4,0-0.4-0.4c0,0-0.4,0-0.4-0.4c-1.2-0.8-2.4-0.8-4-0.8H76.7
		c-7.2,0-14,2.8-18.8,7.6L57.5,8c-4.8,4.8-8,12-8,19.2v340.4c0,7.6,3.2,14.4,8,19.2c4.8,4.8,12,8,19.2,8h243.6
		c7.6,0,14.4-3.2,19.2-8s8-12,8-19.2V82.8C347.5,81.2,347.1,80,346.7,78.8z M272.7,28.8L317.9,74h-33.2c-3.2,0-6.4-1.2-8.4-3.6
		c-2-2-3.6-5.2-3.6-8.4L272.7,28.8L272.7,28.8z M330.3,367.6c0,2.8-1.2,5.2-3.2,7.2s-4.4,3.2-7.2,3.2H76.7c-2.8,0-5.2-1.2-7.2-2.8
		c-2-2-2.8-4.4-2.8-7.2V26.8c0-2.8,1.2-5.2,3.2-7.2l0.4-0.4c2-1.6,4.4-2.8,6.8-2.8h179.2v45.2c0,8,3.2,15.2,8.8,20.8
		c5.2,5.2,12.8,8.4,20.8,8.4h44.4L330.3,367.6L330.3,367.6z"/>
</g>
<g class="st1">
	<path class="st0" d="M150.8,220.2v-36.1h13.6c2.4,0,4.2,0.1,5.5,0.3c1.8,0.3,3.3,0.9,4.5,1.7s2.2,2,2.9,3.5s1.1,3.1,1.1,4.9
		c0,3.1-1,5.7-2.9,7.8s-5.5,3.2-10.6,3.2h-9.3v14.7H150.8z M155.6,201.3h9.3c3.1,0,5.3-0.6,6.6-1.7c1.3-1.1,1.9-2.8,1.9-4.9
		c0-1.5-0.4-2.8-1.1-3.9c-0.8-1.1-1.8-1.8-3-2.1c-0.8-0.2-2.3-0.3-4.5-0.3h-9.2V201.3z"/>
	<path class="st0" d="M184.5,220.2v-36.1h12.4c2.8,0,5,0.2,6.4,0.5c2.1,0.5,3.8,1.3,5.3,2.6c1.9,1.6,3.3,3.7,4.3,6.2
		s1.4,5.4,1.4,8.6c0,2.7-0.3,5.2-1,7.3c-0.6,2.1-1.5,3.9-2.5,5.3s-2.1,2.5-3.3,3.3c-1.2,0.8-2.6,1.4-4.3,1.8
		c-1.7,0.4-3.6,0.6-5.8,0.6H184.5z M189.3,215.9h7.7c2.4,0,4.2-0.2,5.6-0.7s2.4-1.1,3.2-1.9c1.1-1.1,2-2.7,2.6-4.6
		c0.6-1.9,0.9-4.2,0.9-7c0-3.8-0.6-6.7-1.9-8.7s-2.7-3.4-4.5-4.1c-1.3-0.5-3.3-0.7-6.2-0.7h-7.6V215.9z"/>
	<path class="st0" d="M221.2,220.2v-36.1h24.4v4.3h-19.6v11.2h16.9v4.3h-16.9v16.4H221.2z"/>
</g>
</svg>
