<?xml version="1.0" encoding="utf-8"?>
<!-- Generator: Adobe Illustrator 24.3.0, SVG Export Plug-In . SVG Version: 6.00 Build 0)  -->
<svg version="1.1" id="Layer_1" xmlns="http://www.w3.org/2000/svg" xmlns:xlink="http://www.w3.org/1999/xlink" x="0px" y="0px"
	 viewBox="0 0 512 512" style="enable-background:new 0 0 512 512;" xml:space="preserve">
<style type="text/css">
	.st0{fill:#FFC850;}
	.st1{fill:#E1A546;}
	.st2{fill:#E2F8CC;}
	.st3{fill:#09E5D0;}
	.st4{fill:#FFFFFF;}
</style>
<path class="st0" d="M258.6,88.1l21.6-8.2c2.4-0.9,5.1-0.5,7.1,1.1l18.1,14.5c1.4,1.1,3.1,1.7,4.9,1.6l23.1-1.1
	c2.6-0.1,5,1.1,6.4,3.3l12.7,19.3c1,1.5,2.5,2.6,4.2,3l22.3,6.1c2.5,0.7,4.4,2.6,5.1,5.1l6.1,22.3c0.5,1.7,1.5,3.2,3,4.2l19.3,12.7
	c2.2,1.4,3.4,3.9,3.3,6.4l-1.1,23.1c-0.1,1.8,0.5,3.5,1.6,4.9l14.5,18.1c1.6,2,2,4.7,1.1,7.1l-8.2,21.6c-0.6,1.7-0.6,3.5,0,5.2
	l8.2,21.6c0.9,2.4,0.5,5.1-1.1,7.1l-14.5,18.1c-1.1,1.4-1.7,3.1-1.6,4.9l1.1,23.1c0.1,2.6-1.1,5-3.3,6.4l-19.3,12.7
	c-1.5,1-2.6,2.5-3,4.2l-6.1,22.3c-0.7,2.5-2.6,4.4-5.1,5.1l-22.3,6.1c-1.7,0.5-3.2,1.5-4.2,3l-12.7,19.3c-1.4,2.2-3.9,3.4-6.4,3.3
	l-23.1-1.1c-1.8-0.1-3.5,0.5-4.9,1.6L287.4,431c-2,1.6-4.7,2-7.1,1.1l-21.6-8.2c-1.7-0.6-3.5-0.6-5.2,0l-21.6,8.2
	c-2.4,0.9-5.1,0.5-7.1-1.1l-18.1-14.5c-1.4-1.1-3.1-1.7-4.9-1.6l-23.1,1.1c-2.6,0.1-5-1.1-6.4-3.3l-12.7-19.3c-1-1.5-2.5-2.6-4.2-3
	l-22.3-6.1c-2.5-0.7-4.4-2.6-5.1-5.1l-6.1-22.3c-0.5-1.7-1.5-3.2-3-4.2l-19.3-12.7c-2.2-1.4-3.4-3.9-3.3-6.4l1.1-23.1
	c0.1-1.8-0.5-3.5-1.6-4.9L81,287.4c-1.6-2-2-4.7-1.1-7.1l8.2-21.6c0.6-1.7,0.6-3.5,0-5.2l-8.2-21.6c-0.9-2.4-0.5-5.1,1.1-7.1
	l14.5-18.1c1.1-1.4,1.7-3.1,1.6-4.9L96,178.5c-0.1-2.6,1.1-5,3.3-6.4l19.3-12.7c1.5-1,2.6-2.5,3-4.2l6.1-22.3
	c0.7-2.5,2.6-4.4,5.1-5.1l22.3-6.1c1.7-0.5,3.2-1.5,4.2-3l12.7-19.3c1.4-2.2,3.9-3.4,6.4-3.3l23.1,1.1c1.8,0.1,3.5-0.5,4.9-1.6
	L224.6,81c2-1.6,4.7-2,7.1-1.1l21.6,8.2C255.1,88.7,256.9,88.7,258.6,88.1z"/>
<path class="st1" d="M311.1,384.6c-101.4,0-183.7-82.2-183.7-183.7c0-27.2,5.9-52.9,16.5-76.1l-11.1,3c-2.5,0.7-4.4,2.6-5.1,5.1
	l-6.1,22.3c-0.5,1.7-1.5,3.2-3,4.2l-19.3,12.7c-2.2,1.4-3.4,3.9-3.3,6.4l1.1,23.1c0.1,1.8-0.5,3.5-1.6,4.9L81,224.6
	c-1.6,2-2,4.7-1.1,7.1l8.2,21.6c0.6,1.7,0.6,3.5,0,5.2l-8.2,21.6c-0.9,2.4-0.5,5.1,1.1,7.1l14.5,18.1c1.1,1.4,1.7,3.1,1.6,4.9
	L96,333.5c-0.1,2.6,1.1,5,3.3,6.4l19.3,12.7c1.5,1,2.6,2.5,3,4.2l6.1,22.3c0.7,2.5,2.6,4.4,5.1,5.1l22.3,6.1c1.7,0.5,3.2,1.5,4.2,3
	l12.7,19.3c1.4,2.2,3.9,3.4,6.4,3.3l23.1-1.1c1.8-0.1,3.5,0.5,4.9,1.6l18.1,14.5c2,1.6,4.7,2,7.1,1.1l21.6-8.2
	c1.7-0.6,3.5-0.6,5.2,0l21.6,8.2c2.4,0.9,5.1,0.5,7.1-1.1l18.1-14.5c1.4-1.1,3.1-1.7,4.9-1.6l23.1,1.1c2.6,0.1,5-1.1,6.4-3.3
	l12.7-19.3c1-1.5,2.5-2.6,4.2-3l22.3-6.1c2.5-0.7,4.4-2.6,5.1-5.1l3-11.1C364,378.6,338.3,384.6,311.1,384.6z"/>
<circle class="st2" cx="256" cy="256" r="140.8"/>
<path class="st3" d="M313.7,356.2c-1-1.7-2.8-2.8-4.8-3c-71-7.3-126.3-67.2-126.3-140c0-18.5,3.6-36.1,10-52.2
	c1.7-4.1-3-7.9-6.6-5.3c-35.3,24.6-57,67.4-51.6,114.8c6.3,55.1,50.3,99.7,105.3,107c26,3.4,50.5-1.5,71.5-12.3
	C314.5,363.4,315.5,359.3,313.7,356.2L313.7,356.2z"/>
<path class="st4" d="M347.9,234.6c0-8.5-6.9-15.3-15.3-15.3h-53c14.3-11.5,23.9-27,25.3-39.7c1-9.4-5.5-18.4-15-18.5
	c-8.5-0.1-15.4,6.7-15.4,15.2c0,5.5-12,21.9-34.4,29.2c-3.6,1.2-6.7,3.4-9.3,6.1c-1.9,2-7,8.2-12,11.6c-0.9-2.3-3.1-3.9-5.7-3.9
	h-36.7c-3.4,0-6.1,2.7-6.1,6.1v98c0,3.4,2.7,6.1,6.1,6.1h36.7c3.4,0,6.1-2.7,6.1-6.1h98c6.8,0,12.2-5.5,12.2-12.2
	c0-6.8-5.5-12.2-12.2-12.2h6.1c6.8,0,12.2-5.5,12.2-12.2c0-6.8-5.5-12.2-12.2-12.2h6.1c6.8,0,12.2-5.5,12.2-12.2
	c0-6.8-5.5-12.2-12.2-12.2h3.1C341,249.9,347.9,243,347.9,234.6z"/>
<g>
	<path class="st2" d="M311.1,286.6c-3.4,0-6.1,2.7-6.1,6.1s2.7,6.1,6.1,6.1h6.2h5.5c6.1,0,11.8-4.2,12.7-10.2
		c0.1-0.7,0.1-1.4,0.1-2.1H311.1z"/>
	<path class="st2" d="M311.1,262.1c-3.4,0-6.1,2.7-6.1,6.1c0,3.4,2.7,6.1,6.1,6.1h12.3h5.5c6.1,0,11.8-4.2,12.7-10.2
		c0.1-0.7,0.1-1.4,0.1-2.1H311.1z"/>
	<path class="st2" d="M311.1,237.6c-3.4,0-6.1,2.7-6.1,6.1s2.7,6.1,6.1,6.1h18.4h3.1c7.4,0,13.5-5.3,14.9-12.2L311.1,237.6
		L311.1,237.6z"/>
	<path class="st2" d="M237.6,305v-75c0-2.7,1.7-5,4.2-5.8c12.3-4,47.5-19.1,50.5-60.5c-1-1-1.6-1.6-2.6-2.7
		c-8.5,0-15.3,6.8-15.3,15.2c0,5.5-12,21.9-34.4,29.2c-3.6,1.2-6.7,3.4-9.3,6.1c-1.8,2-6.7,7.8-11.5,11.2v88.3h-18.4
		c-6.8,0-12.2-5.5-12.2-12.2v-79.6h-12.2c-3.4,0-6.1,2.7-6.1,6.1v98c0,3.4,2.7,6.1,6.1,6.1h36.7c3.4,0,6.1-2.7,6.1-6.1h98
		c6.8,0,12.2-5.5,12.2-12.2h-85.7C240.4,311.1,237.6,308.4,237.6,305z"/>
</g>
<path d="M353.6,234.6c0-11.6-9.4-21-21-21h-38.7c9.4-10.6,15.5-22.6,16.7-33.4c0.7-6.6-1.3-13.1-5.6-17.9c-3.9-4.4-9.3-6.9-15.1-6.9
	c-0.1,0-0.1,0-0.2,0c-5.6,0-10.9,2.2-14.8,6.1c-4,3.9-6.2,9.2-6.2,14.8c-0.2,1.2-2.4,5.4-7.6,10.5c-4.3,4.1-11.8,9.8-22.8,13.3
	c-4.3,1.4-8.3,4-11.7,7.7c-1.8,1.9-4.5,4.6-7.9,7.3c-1.7-0.9-3.5-1.4-5.5-1.4h-36.7c-6.5,0-11.9,5.3-11.9,11.9v98
	c0,6.5,5.3,11.9,11.9,11.9h36.7c4.5,0,8.3-2.5,10.4-6.1h93.7c9.9,0,18-8.1,18-18c0-3.3-0.9-6.5-2.5-9.1c5.2-3.2,8.6-8.9,8.6-15.4
	c0-3.3-0.9-6.5-2.5-9.1c5.2-3.2,8.6-8.9,8.6-15.4c0-3.8-1.2-7.2-3.1-10.1C349.9,248.2,353.6,241.8,353.6,234.6z M332.6,244.1h-3.1
	c-3.2,0-5.7,2.6-5.7,5.7c0,3.2,2.6,5.7,5.7,5.7c3.6,0,6.5,2.9,6.5,6.5c0,3.6-2.9,6.5-6.5,6.5h-6.1c-3.2,0-5.7,2.6-5.7,5.7
	s2.6,5.7,5.7,5.7c3.6,0,6.5,2.9,6.5,6.5s-2.9,6.5-6.5,6.5h-6.1c-3.2,0-5.7,2.6-5.7,5.7s2.6,5.7,5.7,5.7c3.6,0,6.5,2.9,6.5,6.5
	c0,3.6-2.9,6.5-6.5,6.5H225v-55.5c0-3.2-2.6-5.7-5.7-5.7c-3.2,0-5.7,2.6-5.7,5.7v61.2c0,0.2-0.2,0.4-0.4,0.4h-36.7
	c-0.2,0-0.4-0.2-0.4-0.4v-98c0-0.2,0.2-0.4,0.4-0.4h36.7c0.2,0,0.4,0.2,0.4,0.4v12.2c0,3.2,2.6,5.7,5.7,5.7c3.2,0,5.7-2.6,5.7-5.7
	v-12.2c0-0.3,0-0.6,0-0.8c4.3-3.3,7.7-6.7,10-9.1c2.1-2.3,4.4-3.8,6.9-4.6c13.5-4.4,22.6-11.4,27.9-16.6c6.6-6.5,10.5-13.2,10.5-18
	c0-2.5,1-4.9,2.8-6.7c1.8-1.8,4.2-2.8,6.9-2.8c3.2,0,5.3,1.7,6.6,3.1c2.1,2.4,3.1,5.8,2.8,9.1c-1.3,11.4-10.4,25.5-23.2,35.9
	c-1.9,1.5-2.6,4.1-1.8,6.4c0.8,2.3,3,3.8,5.4,3.8h53c5.3,0,9.6,4.3,9.6,9.6S337.8,244.1,332.6,244.1z"/>
<path d="M194.8,299.2c-3.2,0-5.8,2.6-5.8,5.8c0,3.2,2.6,5.8,5.8,5.8s5.8-2.6,5.8-5.8C200.5,301.8,197.9,299.2,194.8,299.2z"/>
<path d="M429.1,256l9.9-26.1c0.7-1.9,0.4-4-0.9-5.6l-17.4-21.8l1.3-27.9c0.1-2-0.9-4-2.6-5.1L396,154.3l-7.4-26.9
	c-0.5-2-2.1-3.5-4-4l-26.9-7.4l-15.3-23.3c-1.1-1.7-3-2.7-5.1-2.6l-27.9,1.3L287.7,74c-1.6-1.3-3.7-1.6-5.6-0.9L256,82.9l-26.1-9.9
	c-1.9-0.7-4-0.4-5.6,0.9l-21.8,17.4l-27.9-1.3c-2-0.1-4,0.9-5.1,2.6L154.3,116l-26.9,7.4c-2,0.5-3.5,2.1-4,4l-7.4,26.9l-23.3,15.3
	c-1.7,1.1-2.7,3-2.6,5.1l1.3,27.9L74,224.3c-1.3,1.6-1.6,3.7-0.9,5.6l9.9,26.1l-9.9,26.1c-0.7,1.9-0.4,4,0.9,5.6l17.4,21.8
	l-1.3,27.9c-0.1,2,0.9,4,2.6,5.1l23.3,15.3l7.4,26.9c0.5,2,2.1,3.5,4,4l26.9,7.4l15.3,23.3c1.1,1.7,3,2.7,5.1,2.6l27.9-1.3
	l21.8,17.4c1.6,1.3,3.7,1.6,5.6,0.9l26.1-9.9l26.1,9.9c0.7,0.2,1.3,0.4,2,0.4c1.3,0,2.6-0.4,3.6-1.3l21.8-17.4l27.9,1.3
	c2,0.1,4-0.9,5.1-2.6l15.3-23.3l26.9-7.4c2-0.5,3.5-2.1,4-4l7.4-26.9l23.3-15.3c1.7-1.1,2.7-3,2.6-5.1l-1.3-27.9l17.4-21.8
	c1.3-1.6,1.6-3.7,0.9-5.6L429.1,256z M417.6,258l9.5,25.1L410.3,304c-0.9,1.1-1.3,2.5-1.3,3.9l1.3,26.8l-22.4,14.7
	c-1.2,0.8-2,1.9-2.4,3.3l-7.1,25.8l-25.8,7.1c-1.3,0.4-2.5,1.2-3.3,2.4l-14.7,22.4l-26.8-1.3c-1.4-0.1-2.8,0.4-3.9,1.3L283.1,427
	l-25.1-9.5c-0.7-0.2-1.3-0.4-2-0.4s-1.4,0.1-2,0.4l-25.1,9.5L208,410.3c-1.1-0.9-2.5-1.3-3.9-1.3l-26.8,1.3l-14.7-22.4
	c-0.8-1.2-1.9-2-3.3-2.4l-25.8-7.1l-7.1-25.8c-0.4-1.3-1.2-2.5-2.4-3.3l-22.4-14.7l1.3-26.8c0.1-1.4-0.4-2.8-1.3-3.9L85,283.1
	l9.5-25.1c0.5-1.3,0.5-2.8,0-4.1L85,228.9l16.8-20.9c0.9-1.1,1.3-2.5,1.3-3.9l-1.3-26.8l22.4-14.7c1.2-0.8,2-1.9,2.4-3.3l7.1-25.8
	l25.8-7.1c1.3-0.4,2.5-1.2,3.3-2.4l14.7-22.4l26.8,1.3c1.4,0.1,2.8-0.4,3.9-1.3L228.9,85l25.1,9.5c1.3,0.5,2.8,0.5,4.1,0l25.1-9.5
	l20.9,16.8c1.1,0.9,2.5,1.3,3.9,1.3l26.8-1.3l14.7,22.4c0.8,1.2,1.9,2,3.3,2.4l25.8,7.1l7.1,25.8c0.4,1.3,1.2,2.5,2.4,3.3l22.4,14.7
	l-1.3,26.8c-0.1,1.4,0.4,2.8,1.3,3.9l16.8,20.9l-9.5,25.1C417.1,255.3,417.1,256.7,417.6,258z"/>
<path d="M351.3,160.4c1.4,1.4,2.7,2.8,4.1,4.2c1.1,1.2,2.7,1.9,4.2,1.9c1.4,0,2.8-0.5,3.9-1.5c2.3-2.1,2.5-5.8,0.3-8.1
	c-1.4-1.6-2.9-3.1-4.4-4.6c-1.5-1.5-3-3-4.6-4.4c-2.3-2.1-6-2-8.1,0.3c-2.1,2.3-2,6,0.3,8.1C348.5,157.7,349.9,159,351.3,160.4z"/>
<path d="M160.3,160.4c21.9-21.9,50.8-35.7,81.5-38.8c30.3-3.1,61,4.1,86.5,20.3c2.7,1.7,6.2,0.9,7.9-1.8c1.7-2.7,0.9-6.2-1.8-7.9
	c-27.7-17.6-61-25.5-93.8-22.1c-33.3,3.5-64.7,18.4-88.4,42.1c-26.1,26.1-41.3,60.8-42.8,97.7c-1.5,36.7,10.7,72.2,34.2,100.2
	c1.1,1.3,2.8,2,4.4,2c1.3,0,2.6-0.4,3.7-1.3c2.4-2,2.7-5.7,0.7-8.1c-21.7-25.8-32.9-58.6-31.5-92.4
	C122.2,216.4,136.2,184.5,160.3,160.4z"/>
<path d="M371.6,175.5c-2.7,1.7-3.5,5.3-1.8,7.9c16.2,25.5,23.5,56.2,20.3,86.5c-3.2,30.7-17,59.6-38.8,81.5
	c-24.1,24.1-56,38.1-90,39.5c-33.8,1.4-66.6-9.8-92.4-31.5c-2.4-2-6-1.7-8.1,0.7c-2,2.4-1.7,6,0.7,8.1
	c26.4,22.2,59.7,34.3,94.2,34.3c2,0,4,0,6-0.1c36.9-1.5,71.6-16.7,97.7-42.8c23.7-23.7,38.7-55.1,42.1-88.4
	c3.4-32.8-4.4-66.2-22.1-93.8C377.8,174.6,374.3,173.8,371.6,175.5z"/>
</svg>
