<?xml version="1.0" encoding="utf-8"?>
<!-- Generator: Adobe Illustrator 24.3.0, SVG Export Plug-In . SVG Version: 6.00 Build 0)  -->
<svg version="1.1" id="Layer_1" xmlns="http://www.w3.org/2000/svg" xmlns:xlink="http://www.w3.org/1999/xlink" x="0px" y="0px"
	 viewBox="0 0 750 500" style="enable-background:new 0 0 750 500;" xml:space="preserve">
<style type="text/css">
	.st0{fill:#111E37;}
	.st1{fill:#1DA3B5;}
	.st2{fill:#18A3B6;}
	.st3{fill:#122038;}
	.st4{fill:#FEFEFE;}
</style>
<path class="st0" d="M231.5,90c2.4-0.8,4.9-1.3,7.1-2.3c33.5-16.1,66.9-32.4,100.4-48.5c0.3,3.3,0.7,6.7,0.8,10
	c0.2,24.8,0.4,49.7,0.5,74.5c0,112.7,0,225.5,0,339.2c-36.4,0-72.6,0-108.8,0C231.5,338.5,231.5,214.3,231.5,90z M263.3,250
	c0,5.9,0,11.2,0,16.6c5.7,0,11.1,0,16.5,0c0-5.7,0-11.1,0-16.6C274.2,250,269.1,250,263.3,250z M306.6,250.1c-5.8,0-11.1,0-16.6,0
	c0,5.7,0,11,0,16.5c5.7,0,11,0,16.6,0C306.6,261.2,306.6,256,306.6,250.1z M306.5,293.4c0-5.9,0-11.2,0-16.6c-5.7,0-11.1,0-16.5,0
	c0,5.7,0,11.1,0,16.6C295.6,293.4,300.7,293.4,306.5,293.4z M263.2,332.4c5.8,0,11.2,0,16.6,0c0-5.7,0-11,0-16.5c-5.7,0-11,0-16.6,0
	C263.2,321.5,263.2,326.6,263.2,332.4z M279.9,342.8c-6.2,0-11.5,0-16.4,0c0,5.9,0,11.2,0,16.1c5.9,0,11.2,0,16.4,0
	C279.9,353.2,279.9,348,279.9,342.8z M306.6,342.7c-6.2,0-11.5,0-16.5,0c0,5.9,0,11.2,0,16.2c5.9,0,11.2,0,16.5,0
	C306.6,353.2,306.6,348.1,306.6,342.7z M279.9,382c-5.3,0-10.8,0-16.6,0c0,5.4,0,10.7,0,16.3c5.7,0,11,0,16.6,0
	C279.9,392.8,279.9,387.7,279.9,382z M306.6,381.9c-6.1,0-11.5,0-16.5,0c0,5.8,0,11.2,0,16.2c5.9,0,11.2,0,16.5,0
	C306.6,392.4,306.6,387.3,306.6,381.9z M279.9,121.7c-5.9,0-11.3,0-16.6,0c0,5.2,0,10,0,14.9c5.7,0,11.1,0,16.6,0
	C279.9,131.6,279.9,127,279.9,121.7z M306.6,121.9c-6.1,0-11.5,0-16.5,0c0,5.3,0,10.1,0,14.6c5.9,0,11.2,0,16.5,0
	C306.6,131.4,306.6,126.8,306.6,121.9z M306.3,163.3c0-5.7,0-10.5,0-14.8c-5.9,0-11.3,0-16.1,0c0,5.4,0,10.2,0,14.8
	C295.9,163.3,301.1,163.3,306.3,163.3z M279.6,200.9c0-5.7,0-10.5,0-14.8c-5.9,0-11.3,0-16.1,0c0,5.4,0,10.2,0,14.8
	C269.2,200.9,274.4,200.9,279.6,200.9z M280,212.6c-6,0-11.3,0-16.6,0c0,5.2,0,10,0,14.8c5.8,0,11.1,0,16.6,0
	C280,222.4,280,217.8,280,212.6z M290,212.4c0,5.5,0,10.3,0,15c5.8,0,11.1,0,16.4,0c0-5.3,0-10.1,0-15
	C300.8,212.4,295.7,212.4,290,212.4z M279.8,425c0-5.3,0-10.1,0-15c-5.7,0-11.1,0-16.5,0c0,5.2,0,10,0,15
	C268.8,425,274,425,279.8,425z"/>
<path class="st1" d="M340.3,123.6c-0.2-24.8-0.3-49.7-0.5-74.5c0-3.3-0.5-6.7-0.8-10c2.7,0.5,5.6,0.6,7.9,1.7
	c58.3,28.6,116.5,57.4,174.9,85.9c5.2,2.5,7.1,5.4,7,11.2c-0.4,22.9-0.1,45.9-0.2,68.8c0,2.4-0.9,4.9-1.4,7.3
	c-23.6-11.6-47.2-23.3-70.9-34.8c-5.6-2.7-11.5-4.6-17.2-6.9c-1.5-1.3-2.8-2.9-4.6-3.8c-29.2-14.3-58.4-28.6-87.7-42.8
	C344.8,124.8,342.5,124.3,340.3,123.6z"/>
<path class="st2" d="M447.8,250.2c10.8,5.6,21.6,11.4,32.5,16.9c14.2,7.1,28.6,13.9,42.8,21.2c2.3,1.2,5.3,4.2,5.4,6.3
	c0.4,26.6,0.2,53.1,0.2,80.6c-2.6-1-4.4-1.5-6.2-2.4c-51.8-25.3-103.5-50.7-155.4-75.8c-4.9-2.4-6.8-5-6.7-10.6
	c0.3-23.5,0.1-46.9,0.2-70.4c0-2.4,0.9-4.7,1.5-7.1c26.9,13.2,53.7,26.4,80.6,39.6C444.2,249.3,446.1,249.6,447.8,250.2z"/>
<path class="st3" d="M447.8,250.2c-1.7-0.5-3.5-0.9-5.2-1.7c-26.9-13.2-53.7-26.4-80.6-39.6c25.7-12.2,51.4-24.4,77.1-36.5
	c5.8,2.3,11.7,4.2,17.2,6.9c23.7,11.5,47.3,23.2,70.9,34.8C500.8,226.1,474.3,238.1,447.8,250.2z"/>
<path class="st4" d="M263.3,250c5.8,0,10.9,0,16.5,0c0,5.5,0,10.9,0,16.6c-5.4,0-10.7,0-16.5,0C263.3,261.2,263.3,255.9,263.3,250z"
	/>
<path class="st4" d="M306.6,250.1c0,5.9,0,11,0,16.5c-5.6,0-10.9,0-16.6,0c0-5.5,0-10.8,0-16.5C295.5,250.1,300.8,250.1,306.6,250.1
	z"/>
<path class="st4" d="M306.5,293.4c-5.8,0-10.9,0-16.5,0c0-5.5,0-10.9,0-16.6c5.4,0,10.7,0,16.5,0
	C306.5,282.2,306.5,287.5,306.5,293.4z"/>
<path class="st4" d="M263.2,332.4c0-5.8,0-11,0-16.5c5.6,0,10.9,0,16.6,0c0,5.4,0,10.8,0,16.5C274.3,332.4,269,332.4,263.2,332.4z"
	/>
<path class="st4" d="M279.9,342.8c0,5.3,0,10.4,0,16.1c-5.2,0-10.5,0-16.4,0c0-4.9,0-10.2,0-16.1
	C268.4,342.8,273.7,342.8,279.9,342.8z"/>
<path class="st4" d="M306.6,342.7c0,5.4,0,10.5,0,16.2c-5.3,0-10.6,0-16.5,0c0-5,0-10.3,0-16.2C295.1,342.7,300.5,342.7,306.6,342.7
	z"/>
<path class="st4" d="M279.9,382c0,5.7,0,10.9,0,16.3c-5.6,0-11,0-16.6,0c0-5.6,0-10.9,0-16.3C269.1,382,274.6,382,279.9,382z"/>
<path class="st4" d="M306.6,381.9c0,5.4,0,10.6,0,16.2c-5.3,0-10.7,0-16.5,0c0-5,0-10.4,0-16.2C295.2,381.9,300.5,381.9,306.6,381.9
	z"/>
<path class="st4" d="M279.9,121.7c0,5.2,0,9.8,0,14.9c-5.6,0-10.9,0-16.6,0c0-4.8,0-9.6,0-14.9C268.7,121.7,274,121.7,279.9,121.7z"
	/>
<path class="st4" d="M306.6,121.9c0,4.9,0,9.5,0,14.6c-5.3,0-10.7,0-16.5,0c0-4.5,0-9.3,0-14.6C295.2,121.9,300.5,121.9,306.6,121.9
	z"/>
<path class="st4" d="M306.3,163.3c-5.2,0-10.4,0-16.1,0c0-4.6,0-9.4,0-14.8c4.8,0,10.2,0,16.1,0
	C306.3,152.9,306.3,157.7,306.3,163.3z"/>
<path class="st4" d="M279.6,200.9c-5.2,0-10.4,0-16.1,0c0-4.6,0-9.4,0-14.8c4.8,0,10.2,0,16.1,0
	C279.6,190.5,279.6,195.3,279.6,200.9z"/>
<path class="st4" d="M280,212.6c0,5.1,0,9.8,0,14.8c-5.5,0-10.9,0-16.6,0c0-4.8,0-9.6,0-14.8C268.6,212.6,274,212.6,280,212.6z"/>
<path class="st4" d="M290,212.4c5.6,0,10.8,0,16.4,0c0,5,0,9.8,0,15c-5.3,0-10.6,0-16.4,0C290,222.7,290,217.9,290,212.4z"/>
<path class="st4" d="M279.8,425c-5.8,0-11,0-16.5,0c0-5,0-9.8,0-15c5.4,0,10.8,0,16.5,0C279.8,414.8,279.8,419.6,279.8,425z"/>
</svg>
